<?xml version="1.0" encoding="UTF-8"?>
<!DOCTYPE svg PUBLIC "-//W3C//DTD SVG 1.1//EN" "http://www.w3.org/Graphics/SVG/1.1/DTD/svg11.dtd">
<svg version="1.2" width="122.5mm" height="152.5mm" viewBox="6255 2255 12250 15250" preserveAspectRatio="xMidYMid" fill-rule="evenodd" stroke-width="28.222" stroke-linejoin="round" xmlns="http://www.w3.org/2000/svg" xmlns:ooo="http://xml.openoffice.org/svg/export" xmlns:xlink="http://www.w3.org/1999/xlink" xmlns:presentation="http://sun.com/xmlns/staroffice/presentation" xmlns:smil="http://www.w3.org/2001/SMIL20/" xmlns:anim="urn:oasis:names:tc:opendocument:xmlns:animation:1.0" xml:space="preserve">
 <defs class="EmbeddedBulletChars">
  <g id="bullet-char-template-57356" transform="scale(0.00048828125,-0.00048828125)">
   <path d="M 580,1141 L 1163,571 580,0 -4,571 580,1141 Z"/>
  </g>
  <g id="bullet-char-template-57354" transform="scale(0.00048828125,-0.00048828125)">
   <path d="M 8,1128 L 1137,1128 1137,0 8,0 8,1128 Z"/>
  </g>
  <g id="bullet-char-template-10146" transform="scale(0.00048828125,-0.00048828125)">
   <path d="M 174,0 L 602,739 174,1481 1456,739 174,0 Z M 1358,739 L 309,1346 659,739 1358,739 Z"/>
  </g>
  <g id="bullet-char-template-10132" transform="scale(0.00048828125,-0.00048828125)">
   <path d="M 2015,739 L 1276,0 717,0 1260,543 174,543 174,936 1260,936 717,1481 1274,1481 2015,739 Z"/>
  </g>
  <g id="bullet-char-template-10007" transform="scale(0.00048828125,-0.00048828125)">
   <path d="M 0,-2 C -7,14 -16,27 -25,37 L 356,567 C 262,823 215,952 215,954 215,979 228,992 255,992 264,992 276,990 289,987 310,991 331,999 354,1012 L 381,999 492,748 772,1049 836,1024 860,1049 C 881,1039 901,1025 922,1006 886,937 835,863 770,784 769,783 710,716 594,584 L 774,223 C 774,196 753,168 711,139 L 727,119 C 717,90 699,76 672,76 641,76 570,178 457,381 L 164,-76 C 142,-110 111,-127 72,-127 30,-127 9,-110 8,-76 1,-67 -2,-52 -2,-32 -2,-23 -1,-13 0,-2 Z"/>
  </g>
  <g id="bullet-char-template-10004" transform="scale(0.00048828125,-0.00048828125)">
   <path d="M 285,-33 C 182,-33 111,30 74,156 52,228 41,333 41,471 41,549 55,616 82,672 116,743 169,778 240,778 293,778 328,747 346,684 L 369,508 C 377,444 397,411 428,410 L 1163,1116 C 1174,1127 1196,1133 1229,1133 1271,1133 1292,1118 1292,1087 L 1292,965 C 1292,929 1282,901 1262,881 L 442,47 C 390,-6 338,-33 285,-33 Z"/>
  </g>
  <g id="bullet-char-template-9679" transform="scale(0.00048828125,-0.00048828125)">
   <path d="M 813,0 C 632,0 489,54 383,161 276,268 223,411 223,592 223,773 276,916 383,1023 489,1130 632,1184 813,1184 992,1184 1136,1130 1245,1023 1353,916 1407,772 1407,592 1407,412 1353,268 1245,161 1136,54 992,0 813,0 Z"/>
  </g>
  <g id="bullet-char-template-8226" transform="scale(0.00048828125,-0.00048828125)">
   <path d="M 346,457 C 273,457 209,483 155,535 101,586 74,649 74,723 74,796 101,859 155,911 209,963 273,989 346,989 419,989 480,963 531,910 582,859 608,796 608,723 608,648 583,586 532,535 482,483 420,457 346,457 Z"/>
  </g>
  <g id="bullet-char-template-8211" transform="scale(0.00048828125,-0.00048828125)">
   <path d="M -4,459 L 1135,459 1135,606 -4,606 -4,459 Z"/>
  </g>
  <g id="bullet-char-template-61548" transform="scale(0.00048828125,-0.00048828125)">
   <path d="M 173,740 C 173,903 231,1043 346,1159 462,1274 601,1332 765,1332 928,1332 1067,1274 1183,1159 1299,1043 1357,903 1357,740 1357,577 1299,437 1183,322 1067,206 928,148 765,148 601,148 462,206 346,322 231,437 173,577 173,740 Z"/>
  </g>
 </defs>
 <g class="Page">
  <g class="Graphic">
   <g id="id3">
    <rect class="BoundingBox" stroke="none" fill="none" x="6255" y="2255" width="12250" height="15250"/>
    <defs>
     <clipPath id="clip_path_1" clipPathUnits="userSpaceOnUse">
      <path d="M 6255,2255 L 18504,2255 18504,17504 6255,17504 6255,2255 Z"/>
     </clipPath>
    </defs>
    <g clip-path="url(#clip_path_1)">
     <path fill="rgb(0,0,0)" stroke="none" d="M 14058,5115 L 14058,2599 8132,2599 C 7364,2599 6728,3232 6728,4000 L 6728,15782 C 6728,16550 7364,17183 8132,17183 L 16589,17183 C 17356,17183 17993,16550 17993,15782 L 17993,6727 15674,6727 C 14779,6727 14058,6006 14058,5115 L 14058,5115 Z M 10860,8155 L 12009,8155 11353,7403 C 11242,7275 11257,7082 11384,6974 11512,6862 11708,6878 11820,7005 L 12916,8274 12920,8278 C 12924,8282 12927,8286 12927,8290 12931,8294 12935,8298 12935,8301 12939,8305 12939,8309 12943,8313 12947,8317 12947,8321 12951,8325 12954,8328 12954,8332 12958,8336 12962,8340 12962,8344 12966,8348 12966,8352 12970,8355 12970,8359 12970,8363 12974,8367 12974,8375 12974,8379 12978,8382 12978,8386 12978,8390 12981,8398 12981,8402 12981,8406 12981,8409 12985,8413 L 12985,8433 C 12985,8436 12981,8440 12981,8444 12981,8456 12974,8463 12974,8475 12974,8475 12981,8475 12981,8479 12981,8487 12989,8498 12989,8506 L 12989,8517 C 12989,8525 12989,8529 12985,8537 12985,8541 12985,8544 12981,8548 12981,8552 12978,8560 12978,8564 12978,8568 12974,8571 12974,8575 12974,8579 12970,8583 12970,8591 12970,8595 12966,8598 12966,8602 12962,8606 12962,8610 12958,8618 12954,8622 12954,8625 12951,8629 12947,8633 12947,8637 12943,8641 12939,8645 12939,8649 12935,8652 12931,8656 12927,8660 12927,8664 12924,8668 12924,8672 12920,8676 L 12920,8679 11824,9956 C 11762,10026 11677,10065 11589,10065 11519,10065 11446,10038 11388,9987 11257,9875 11245,9679 11353,9548 L 12013,8776 10860,8776 C 10080,8776 9444,9416 9444,10200 9444,10983 10080,11623 10860,11623 11029,11623 11168,11762 11168,11932 11168,12102 11029,12240 10860,12240 9737,12240 8826,11322 8826,10200 8826,9077 9737,8155 10860,8155 L 10860,8155 Z M 15535,15138 L 9185,15138 C 9015,15138 8877,14999 8877,14829 8877,14659 9015,14521 9185,14521 L 15539,14521 C 15709,14521 15848,14659 15848,14829 15848,14999 15709,15138 15535,15138 L 15535,15138 Z M 13861,12244 L 12711,12244 13367,12997 C 13479,13124 13464,13317 13336,13425 13278,13475 13205,13498 13136,13498 13051,13498 12962,13464 12900,13390 L 11805,12121 11801,12117 C 11797,12113 11793,12109 11793,12106 11789,12102 11785,12098 11785,12094 11782,12090 11782,12086 11778,12082 11774,12078 11774,12075 11770,12071 11766,12067 11766,12063 11762,12059 11758,12055 11758,12051 11755,12048 11755,12044 11751,12040 11751,12036 11751,12032 11747,12028 11747,12021 11747,12017 11743,12013 11743,12009 11743,12005 11739,11997 11739,11994 11739,11990 11739,11986 11735,11982 L 11735,11963 C 11735,11959 11739,11955 11739,11951 11739,11940 11747,11932 11747,11920 11747,11920 11739,11920 11739,11916 11739,11909 11731,11897 11731,11889 L 11731,11878 C 11731,11870 11731,11866 11735,11859 11735,11855 11735,11851 11739,11847 11739,11843 11743,11835 11743,11832 11743,11828 11747,11824 11747,11820 11747,11816 11751,11812 11751,11805 11751,11801 11755,11797 11755,11793 11758,11789 11758,11785 11762,11778 11766,11774 11766,11770 11770,11766 11774,11762 11774,11758 11778,11754 11782,11751 11782,11747 11785,11743 11789,11739 11793,11735 11793,11731 11797,11727 11797,11724 11801,11720 L 11801,11716 12896,10439 C 13008,10308 13201,10296 13332,10408 13464,10520 13475,10717 13367,10848 L 12707,11627 13861,11627 C 14640,11627 15277,10987 15277,10204 15277,9420 14640,8780 13861,8780 13691,8780 13552,8641 13552,8471 13552,8302 13691,8163 13861,8163 14984,8163 15894,9081 15894,10204 15894,11326 14984,12244 13861,12244 L 13861,12244 Z"/>
     <path fill="rgb(0,0,0)" stroke="none" d="M 15674,6110 L 17569,6110 14675,3074 14675,5115 C 14675,5666 15119,6110 15674,6110 L 15674,6110 Z"/>
     <path fill="rgb(0,0,0)" stroke="none" d="M 2613,20339 C 2607,20342 2600,20344 2592,20346 2585,20348 2578,20349 2570,20349 2547,20349 2528,20343 2514,20330 2500,20317 2494,20299 2494,20276 2494,20254 2500,20236 2514,20223 2528,20210 2547,20203 2570,20203 2578,20203 2585,20204 2592,20206 2600,20208 2607,20210 2613,20213 L 2613,20243 C 2607,20238 2600,20235 2593,20233 2587,20231 2580,20229 2573,20229 2560,20229 2550,20234 2542,20242 2535,20250 2531,20262 2531,20276 2531,20291 2535,20302 2542,20310 2550,20319 2560,20323 2573,20323 2580,20323 2587,20322 2593,20320 2600,20318 2607,20314 2613,20309 L 2613,20339 Z"/>
     <path fill="rgb(0,0,0)" stroke="none" d="M 2721,20270 C 2718,20268 2715,20267 2712,20266 2709,20266 2706,20265 2703,20265 2694,20265 2687,20268 2683,20274 2678,20280 2676,20288 2676,20298 L 2676,20346 2642,20346 2642,20241 2676,20241 2676,20258 C 2680,20251 2685,20246 2690,20243 2696,20240 2703,20238 2711,20238 L 2715,20238 C 2716,20238 2718,20239 2720,20239 L 2721,20270 Z"/>
     <path fill="rgb(0,0,0)" stroke="none" d="M 2842,20293 L 2842,20303 2763,20303 C 2765,20311 2767,20317 2772,20321 2777,20325 2784,20326 2793,20326 2800,20326 2807,20326 2815,20324 2822,20321 2830,20318 2837,20314 L 2837,20340 C 2830,20343 2822,20345 2814,20347 2805,20348 2798,20349 2790,20349 2771,20349 2756,20344 2745,20335 2735,20325 2729,20311 2729,20293 2729,20277 2734,20263 2745,20253 2755,20243 2770,20238 2788,20238 2804,20238 2817,20243 2827,20253 2837,20263 2842,20277 2842,20293 L 2842,20293 Z M 2808,20282 C 2808,20276 2806,20271 2802,20267 2798,20263 2793,20261 2788,20261 2781,20261 2776,20263 2772,20266 2768,20270 2765,20275 2764,20282 L 2808,20282 Z"/>
     <path fill="rgb(0,0,0)" stroke="none" d="M 2915,20299 C 2908,20299 2903,20300 2899,20303 2896,20305 2894,20309 2894,20313 2894,20317 2895,20321 2898,20323 2901,20325 2905,20326 2910,20326 2916,20326 2922,20324 2926,20320 2931,20315 2933,20310 2933,20303 L 2933,20299 2915,20299 Z M 2967,20286 L 2967,20346 2933,20346 2933,20331 C 2928,20337 2923,20342 2917,20345 2912,20348 2905,20349 2897,20349 2886,20349 2877,20346 2870,20340 2863,20333 2860,20325 2860,20315 2860,20302 2864,20293 2873,20287 2881,20282 2894,20278 2913,20278 L 2933,20278 2933,20276 C 2933,20271 2931,20267 2926,20265 2922,20262 2916,20261 2907,20261 2899,20261 2893,20262 2886,20263 2880,20265 2874,20267 2869,20269 L 2869,20244 C 2876,20242 2883,20241 2891,20240 2898,20239 2906,20238 2913,20238 2932,20238 2946,20242 2954,20250 2963,20257 2967,20269 2967,20286 L 2967,20286 Z"/>
     <path fill="rgb(0,0,0)" stroke="none" d="M 3035,20211 L 3035,20241 3070,20241 3070,20265 3035,20265 3035,20310 C 3035,20315 3036,20318 3038,20320 3040,20321 3044,20322 3050,20322 L 3067,20322 3067,20346 3038,20346 C 3025,20346 3015,20344 3010,20338 3004,20332 3001,20323 3001,20310 L 3001,20265 2985,20265 2985,20241 3001,20241 3001,20211 3035,20211 Z"/>
     <path fill="rgb(0,0,0)" stroke="none" d="M 3195,20293 L 3195,20303 3117,20303 C 3118,20311 3121,20317 3125,20321 3130,20325 3137,20326 3146,20326 3153,20326 3160,20326 3168,20324 3175,20321 3183,20318 3190,20314 L 3190,20340 C 3183,20343 3175,20345 3167,20347 3159,20348 3151,20349 3143,20349 3124,20349 3109,20344 3098,20335 3088,20325 3082,20311 3082,20293 3082,20277 3088,20263 3098,20253 3108,20243 3123,20238 3141,20238 3157,20238 3171,20243 3181,20253 3190,20263 3195,20277 3195,20293 L 3195,20293 Z M 3161,20282 C 3161,20276 3159,20271 3155,20267 3151,20263 3147,20261 3141,20261 3134,20261 3129,20263 3125,20266 3121,20270 3118,20275 3117,20282 L 3161,20282 Z"/>
     <path fill="rgb(0,0,0)" stroke="none" d="M 3293,20256 L 3293,20200 3327,20200 3327,20346 3293,20346 3293,20331 C 3288,20337 3283,20342 3278,20345 3272,20348 3266,20349 3258,20349 3245,20349 3234,20344 3226,20334 3218,20323 3214,20310 3214,20293 3214,20277 3218,20264 3226,20254 3234,20243 3245,20238 3258,20238 3265,20238 3272,20240 3277,20243 3283,20246 3288,20250 3293,20256 L 3293,20256 Z M 3287,20317 C 3291,20312 3293,20304 3293,20293 3293,20283 3291,20276 3287,20271 3283,20265 3278,20262 3271,20262 3264,20262 3258,20265 3254,20271 3250,20276 3249,20283 3249,20293 3249,20304 3250,20312 3254,20317 3258,20322 3264,20325 3271,20325 3278,20325 3283,20322 3287,20317 Z"/>
     <path fill="rgb(0,0,0)" stroke="none" d="M 3499,20317 C 3503,20312 3505,20304 3505,20293 3505,20283 3503,20276 3499,20271 3495,20265 3490,20262 3482,20262 3475,20262 3470,20265 3466,20271 3462,20276 3460,20283 3460,20293 3460,20304 3462,20312 3466,20317 3470,20322 3475,20325 3482,20325 3490,20325 3495,20322 3499,20317 Z M 3460,20256 C 3465,20250 3470,20246 3475,20243 3481,20240 3488,20238 3495,20238 3508,20238 3518,20243 3527,20254 3535,20264 3540,20277 3540,20293 3540,20310 3535,20323 3527,20334 3518,20344 3508,20349 3495,20349 3488,20349 3481,20348 3475,20345 3470,20342 3465,20337 3460,20331 L 3460,20346 3426,20346 3426,20200 3460,20200 3460,20256 Z"/>
     <path fill="rgb(0,0,0)" stroke="none" d="M 3551,20241 L 3584,20241 3613,20312 3637,20241 3671,20241 3626,20356 C 3622,20368 3616,20376 3611,20381 3605,20386 3597,20388 3587,20388 L 3568,20388 3568,20366 3578,20366 C 3584,20366 3588,20365 3591,20363 3593,20361 3595,20358 3597,20353 L 3598,20350 3551,20241 Z"/>
     <path fill="rgb(0,0,0)" stroke="none" d="M 3811,20268 C 3818,20268 3823,20267 3827,20264 3830,20261 3832,20256 3832,20250 3832,20244 3830,20239 3827,20237 3823,20234 3818,20232 3811,20232 L 3795,20232 3795,20268 3811,20268 Z M 3795,20293 L 3795,20346 3759,20346 3759,20206 3815,20206 C 3833,20206 3846,20209 3855,20215 3864,20221 3868,20231 3868,20244 3868,20254 3866,20262 3861,20267 3857,20273 3850,20278 3841,20281 3846,20282 3850,20284 3854,20288 3858,20292 3862,20298 3866,20307 L 3886,20346 3847,20346 3830,20312 C 3827,20304 3823,20299 3820,20297 3816,20294 3812,20293 3806,20293 L 3795,20293 Z"/>
     <path fill="rgb(0,0,0)" stroke="none" d="M 3953,20299 C 3946,20299 3941,20300 3937,20303 3934,20305 3932,20309 3932,20313 3932,20317 3933,20321 3936,20323 3939,20325 3943,20326 3948,20326 3954,20326 3960,20324 3964,20320 3969,20315 3971,20310 3971,20303 L 3971,20299 3953,20299 Z M 4005,20286 L 4005,20346 3971,20346 3971,20331 C 3966,20337 3961,20342 3955,20345 3950,20348 3943,20349 3935,20349 3924,20349 3915,20346 3908,20340 3901,20333 3898,20325 3898,20315 3898,20302 3902,20293 3911,20287 3919,20282 3933,20278 3951,20278 L 3971,20278 3971,20276 C 3971,20271 3969,20267 3964,20265 3960,20262 3954,20261 3945,20261 3937,20261 3931,20262 3925,20263 3918,20265 3913,20267 3907,20269 L 3907,20244 C 3914,20242 3922,20241 3929,20240 3936,20239 3944,20238 3951,20238 3970,20238 3984,20242 3992,20250 4001,20257 4005,20269 4005,20286 L 4005,20286 Z"/>
     <path fill="rgb(0,0,0)" stroke="none" d="M 4036,20241 L 4070,20241 4070,20345 C 4070,20359 4066,20369 4060,20377 4053,20384 4043,20388 4030,20388 L 4013,20388 4013,20366 4019,20366 C 4026,20366 4030,20364 4032,20361 4034,20359 4036,20353 4036,20345 L 4036,20241 Z M 4036,20200 L 4070,20200 4070,20227 4036,20227 4036,20200 Z"/>
     <path fill="rgb(0,0,0)" stroke="none" d="M 4102,20241 L 4136,20241 4136,20346 4102,20346 4102,20241 Z M 4102,20200 L 4136,20200 4136,20227 4102,20227 4102,20200 Z"/>
     <path fill="rgb(0,0,0)" stroke="none" d="M 4155,20241 L 4189,20241 4215,20314 4241,20241 4275,20241 4234,20346 4196,20346 4155,20241 Z"/>
     <path fill="rgb(0,0,0)" stroke="none" d="M 4399,20293 L 4399,20303 4320,20303 C 4321,20311 4324,20317 4329,20321 4334,20325 4341,20326 4350,20326 4357,20326 4364,20326 4372,20324 4379,20321 4387,20318 4394,20314 L 4394,20340 C 4387,20343 4379,20345 4371,20347 4362,20348 4355,20349 4347,20349 4328,20349 4313,20344 4302,20335 4291,20325 4286,20311 4286,20293 4286,20277 4291,20263 4302,20253 4312,20243 4327,20238 4345,20238 4361,20238 4374,20243 4384,20253 4394,20263 4399,20277 4399,20293 L 4399,20293 Z M 4365,20282 C 4365,20276 4363,20271 4359,20267 4355,20263 4350,20261 4345,20261 4338,20261 4333,20263 4329,20266 4325,20270 4322,20275 4321,20282 L 4365,20282 Z"/>
     <path fill="rgb(0,0,0)" stroke="none" d="M 2570,20393 L 2570,20415 2552,20415 C 2547,20415 2543,20416 2541,20417 2539,20419 2538,20422 2538,20426 L 2538,20434 2568,20434 2568,20458 2538,20458 2538,20539 2505,20539 2505,20458 2488,20458 2488,20434 2505,20434 2505,20426 C 2505,20415 2508,20406 2514,20401 2521,20395 2531,20393 2544,20393 L 2570,20393 Z"/>
     <path fill="rgb(0,0,0)" stroke="none" d="M 2663,20463 C 2660,20461 2657,20460 2654,20459 2651,20459 2648,20458 2645,20458 2637,20458 2630,20461 2625,20467 2621,20472 2618,20480 2618,20491 L 2618,20539 2584,20539 2584,20434 2618,20434 2618,20451 C 2622,20444 2627,20439 2633,20436 2638,20433 2645,20431 2653,20431 L 2657,20431 C 2658,20431 2660,20431 2662,20432 L 2663,20463 Z"/>
     <path fill="rgb(0,0,0)" stroke="none" d="M 2712,20464 C 2709,20469 2707,20476 2707,20486 2707,20497 2709,20504 2712,20510 2716,20515 2722,20518 2730,20518 2737,20518 2743,20515 2747,20510 2751,20504 2753,20497 2753,20486 2753,20476 2751,20469 2747,20464 2743,20458 2737,20455 2730,20455 2722,20455 2716,20458 2712,20464 Z M 2730,20431 C 2748,20431 2762,20436 2772,20446 2782,20456 2787,20469 2787,20486 2787,20504 2782,20518 2772,20528 2762,20537 2748,20542 2730,20542 2712,20542 2697,20537 2687,20528 2677,20518 2672,20504 2672,20486 2672,20469 2677,20456 2687,20446 2697,20436 2712,20431 2730,20431 Z"/>
     <path fill="rgb(0,0,0)" stroke="none" d="M 2910,20451 C 2914,20445 2919,20440 2925,20437 2931,20433 2937,20431 2945,20431 2956,20431 2965,20435 2972,20443 2978,20450 2982,20461 2982,20475 L 2982,20539 2947,20539 2947,20484 C 2948,20483 2948,20483 2948,20482 L 2948,20478 C 2948,20470 2947,20465 2945,20461 2942,20458 2939,20456 2934,20456 2928,20456 2922,20459 2919,20465 2915,20470 2914,20477 2914,20487 L 2914,20539 2880,20539 2880,20484 C 2880,20472 2878,20465 2876,20461 2874,20458 2871,20456 2866,20456 2859,20456 2855,20459 2851,20465 2848,20470 2846,20477 2846,20487 L 2846,20539 2812,20539 2812,20434 2846,20434 2846,20449 C 2850,20443 2855,20439 2860,20436 2865,20433 2871,20431 2878,20431 2885,20431 2892,20433 2897,20437 2903,20440 2907,20445 2910,20451 L 2910,20451 Z"/>
     <path fill="rgb(0,0,0)" stroke="none" d="M 3117,20404 L 3117,20434 3152,20434 3152,20458 3117,20458 3117,20503 C 3117,20508 3118,20511 3120,20513 3122,20514 3126,20515 3132,20515 L 3149,20515 3149,20539 3120,20539 C 3107,20539 3097,20536 3092,20531 3086,20525 3083,20516 3083,20503 L 3083,20458 3067,20458 3067,20434 3083,20434 3083,20404 3117,20404 Z"/>
     <path fill="rgb(0,0,0)" stroke="none" d="M 3279,20475 L 3279,20539 3244,20539 3244,20490 C 3244,20481 3244,20475 3244,20471 3243,20468 3243,20465 3242,20464 3241,20461 3239,20460 3236,20459 3234,20457 3231,20456 3229,20456 3222,20456 3216,20459 3212,20465 3208,20470 3206,20478 3206,20487 L 3206,20539 3172,20539 3172,20393 3206,20393 3206,20449 C 3211,20443 3216,20439 3222,20436 3228,20433 3235,20431 3241,20431 3253,20431 3262,20435 3269,20443 3275,20450 3279,20461 3279,20475 L 3279,20475 Z"/>
     <path fill="rgb(0,0,0)" stroke="none" d="M 3415,20486 L 3415,20496 3336,20496 C 3337,20504 3340,20510 3345,20514 3349,20518 3356,20519 3365,20519 3372,20519 3380,20519 3387,20517 3394,20514 3402,20511 3410,20507 L 3410,20533 C 3402,20536 3394,20538 3386,20540 3378,20541 3370,20542 3362,20542 3343,20542 3328,20537 3318,20528 3307,20518 3302,20504 3302,20486 3302,20469 3307,20456 3317,20446 3328,20436 3342,20431 3360,20431 3377,20431 3390,20436 3400,20446 3410,20456 3415,20469 3415,20486 L 3415,20486 Z M 3381,20475 C 3381,20468 3379,20464 3375,20460 3371,20456 3366,20454 3360,20454 3354,20454 3348,20456 3344,20459 3340,20463 3338,20468 3336,20475 L 3381,20475 Z"/>
     <path fill="rgb(0,0,0)" stroke="none" d="M 3509,20399 L 3550,20399 3601,20495 3601,20399 3635,20399 3635,20539 3595,20539 3544,20443 3544,20539 3509,20539 3509,20399 Z"/>
     <path fill="rgb(0,0,0)" stroke="none" d="M 3702,20464 C 3698,20469 3697,20476 3697,20486 3697,20497 3698,20504 3702,20510 3706,20515 3712,20518 3719,20518 3726,20518 3732,20515 3736,20510 3740,20504 3742,20497 3742,20486 3742,20476 3740,20469 3736,20464 3732,20458 3726,20455 3719,20455 3712,20455 3706,20458 3702,20464 Z M 3719,20431 C 3737,20431 3752,20436 3762,20446 3772,20456 3777,20469 3777,20486 3777,20504 3772,20518 3762,20528 3752,20537 3737,20542 3719,20542 3701,20542 3687,20537 3677,20528 3666,20518 3661,20504 3661,20486 3661,20469 3666,20456 3677,20446 3687,20436 3701,20431 3719,20431 Z"/>
     <path fill="rgb(0,0,0)" stroke="none" d="M 3800,20498 L 3800,20434 3835,20434 3835,20444 3835,20466 3835,20483 C 3835,20491 3835,20498 3835,20502 3835,20505 3836,20508 3837,20509 3839,20512 3841,20514 3843,20515 3845,20516 3848,20517 3851,20517 3857,20517 3863,20514 3867,20508 3871,20503 3873,20495 3873,20486 L 3873,20434 3907,20434 3907,20539 3873,20539 3873,20524 C 3868,20530 3862,20535 3857,20538 3851,20540 3845,20542 3838,20542 3826,20542 3816,20538 3810,20531 3803,20523 3800,20512 3800,20498 L 3800,20498 Z"/>
     <path fill="rgb(0,0,0)" stroke="none" d="M 4045,20475 L 4045,20539 4011,20539 4011,20490 C 4011,20481 4011,20475 4011,20471 4010,20468 4009,20465 4008,20464 4007,20461 4005,20460 4003,20459 4001,20457 3998,20456 3996,20456 3988,20456 3983,20459 3979,20465 3975,20470 3973,20478 3973,20487 L 3973,20539 3939,20539 3939,20434 3973,20434 3973,20449 C 3978,20443 3983,20439 3989,20436 3995,20433 4001,20431 4008,20431 4020,20431 4029,20435 4035,20443 4042,20450 4045,20461 4045,20475 L 4045,20475 Z"/>
     <path fill="rgb(0,0,0)" stroke="none" d="M 4145,20399 L 4205,20399 C 4223,20399 4237,20403 4246,20411 4256,20418 4261,20430 4261,20444 4261,20459 4256,20471 4246,20479 4237,20486 4223,20490 4205,20490 L 4181,20490 4181,20539 4145,20539 4145,20399 Z M 4181,20425 L 4181,20464 4201,20464 C 4208,20464 4213,20463 4217,20459 4221,20456 4223,20451 4223,20444 4223,20438 4221,20433 4217,20430 4213,20427 4208,20425 4201,20425 L 4181,20425 Z"/>
     <path fill="rgb(0,0,0)" stroke="none" d="M 4364,20463 C 4360,20461 4358,20460 4355,20459 4352,20459 4349,20458 4346,20458 4337,20458 4330,20461 4325,20467 4321,20472 4319,20480 4319,20491 L 4319,20539 4285,20539 4285,20434 4319,20434 4319,20451 C 4323,20444 4328,20439 4333,20436 4339,20433 4346,20431 4354,20431 L 4357,20431 C 4359,20431 4361,20431 4363,20432 L 4364,20463 Z"/>
     <path fill="rgb(0,0,0)" stroke="none" d="M 4413,20464 C 4409,20469 4407,20476 4407,20486 4407,20497 4409,20504 4413,20510 4417,20515 4422,20518 4430,20518 4437,20518 4443,20515 4447,20510 4451,20504 4453,20497 4453,20486 4453,20476 4451,20469 4447,20464 4443,20458 4437,20455 4430,20455 4422,20455 4417,20458 4413,20464 Z M 4430,20431 C 4448,20431 4462,20436 4472,20446 4483,20456 4488,20469 4488,20486 4488,20504 4483,20518 4472,20528 4462,20537 4448,20542 4430,20542 4412,20542 4398,20537 4387,20528 4377,20518 4372,20504 4372,20486 4372,20469 4377,20456 4387,20446 4398,20436 4412,20431 4430,20431 Z"/>
     <path fill="rgb(0,0,0)" stroke="none" d="M 4512,20434 L 4546,20434 4546,20538 C 4546,20551 4543,20562 4536,20569 4529,20577 4520,20581 4507,20581 L 4490,20581 4490,20558 4496,20558 C 4502,20558 4506,20557 4508,20554 4511,20551 4512,20546 4512,20538 L 4512,20434 Z M 4512,20393 L 4546,20393 4546,20420 4512,20420 4512,20393 Z"/>
     <path fill="rgb(0,0,0)" stroke="none" d="M 4684,20486 L 4684,20496 4605,20496 C 4606,20504 4609,20510 4614,20514 4618,20518 4625,20519 4634,20519 4641,20519 4649,20519 4656,20517 4663,20514 4671,20511 4679,20507 L 4679,20533 C 4671,20536 4663,20538 4655,20540 4647,20541 4639,20542 4631,20542 4612,20542 4597,20537 4587,20528 4576,20518 4571,20504 4571,20486 4571,20469 4576,20456 4586,20446 4597,20436 4611,20431 4629,20431 4646,20431 4659,20436 4669,20446 4679,20456 4684,20469 4684,20486 L 4684,20486 Z M 4650,20475 C 4650,20468 4647,20464 4643,20460 4640,20456 4635,20454 4629,20454 4623,20454 4617,20456 4613,20459 4609,20463 4607,20468 4605,20475 L 4650,20475 Z"/>
     <path fill="rgb(0,0,0)" stroke="none" d="M 4795,20437 L 4795,20464 C 4790,20461 4786,20459 4781,20458 4776,20456 4771,20455 4767,20455 4757,20455 4750,20458 4744,20464 4739,20469 4737,20477 4737,20486 4737,20496 4739,20504 4744,20509 4750,20515 4757,20518 4767,20518 4772,20518 4777,20517 4781,20515 4786,20514 4790,20512 4795,20508 L 4795,20536 C 4789,20538 4784,20539 4779,20540 4773,20541 4768,20542 4762,20542 4743,20542 4728,20537 4717,20528 4707,20518 4701,20504 4701,20486 4701,20469 4707,20456 4717,20446 4728,20436 4743,20431 4762,20431 4768,20431 4773,20432 4779,20433 4784,20434 4789,20435 4795,20437 L 4795,20437 Z"/>
     <path fill="rgb(0,0,0)" stroke="none" d="M 4860,20404 L 4860,20434 4895,20434 4895,20458 4860,20458 4860,20503 C 4860,20508 4861,20511 4863,20513 4865,20514 4869,20515 4875,20515 L 4892,20515 4892,20539 4864,20539 C 4850,20539 4841,20536 4835,20531 4830,20525 4827,20516 4827,20503 L 4827,20458 4810,20458 4810,20434 4827,20434 4827,20404 4860,20404 Z"/>
    </g>
   </g>
  </g>
 </g>
</svg>